<?xml version="1.0" standalone="no"?>
<!DOCTYPE svg PUBLIC "-//W3C//DTD SVG 20010904//EN"
 "http://www.w3.org/TR/2001/REC-SVG-20010904/DTD/svg10.dtd">
<svg version="1.0" xmlns="http://www.w3.org/2000/svg"
 width="268.000000pt" height="115.000000pt" viewBox="0 0 268.000000 115.000000"
 preserveAspectRatio="xMidYMid meet">

<g transform="translate(0.000000,115.000000) scale(0.100000,-0.100000)"
fill="#000000" stroke="none">
<path d="M62 1110 c-12 -5 -27 -21 -32 -35 -11 -29 -14 -984 -4 -1023 14 -51
23 -52 578 -52 339 0 515 3 518 10 2 6 49 23 105 39 l102 28 8 -36 9 -36 108
-3 c99 -2 107 -1 102 15 -2 10 -10 37 -17 61 -7 23 -10 45 -7 48 7 7 178 54
195 54 7 0 13 -5 13 -12 0 -6 9 -47 21 -90 l21 -78 35 0 c49 0 163 30 163 44
0 6 -11 51 -25 101 -13 49 -23 90 -22 91 7 6 200 55 203 51 3 -2 16 -46 30
-98 13 -51 26 -94 27 -96 3 -2 189 47 194 51 2 1 -8 43 -22 92 -14 49 -25 94
-25 100 0 13 191 67 201 56 4 -4 17 -45 29 -92 13 -47 26 -88 29 -92 4 -4 23
-3 43 2 l36 10 -5 428 -5 427 -24 23 -25 22 -1267 -1 c-736 0 -1276 -4 -1290
-9z m563 -515 l80 -125 5 128 6 127 2 -147 c3 -190 -4 -192 -108 -34 l-75 115
-5 -117 -6 -117 -2 148 c-2 112 1 147 11 147 6 -1 48 -57 92 -125z m1060 104
c0 -7 -8 -15 -17 -17 -18 -3 -25 18 -11 32 10 10 28 1 28 -15z m-744 -88 c33
-34 39 -83 14 -131 -19 -37 -43 -50 -94 -50 -79 0 -122 77 -87 152 20 41 46
56 99 57 30 1 45 -6 68 -28z m233 23 c13 -5 16 -25 16 -121 0 -118 -12 -164
-45 -177 -30 -11 -91 -6 -111 10 -18 15 -18 15 3 5 37 -18 91 -14 103 8 15 29
13 94 -2 85 -10 -6 -10 -4 0 7 7 8 12 43 12 96 l0 83 -38 0 c-50 0 -71 -23
-78 -86 -7 -65 11 -97 56 -105 l35 -6 -42 -2 c-56 -1 -83 31 -83 101 0 41 5
54 29 79 25 24 38 29 79 29 28 0 57 -3 66 -6z m88 -91 l3 -98 28 -3 c52 -6 67
20 67 115 0 76 2 83 20 83 19 0 20 -7 20 -99 0 -86 2 -100 18 -104 11 -3 8 -5
-9 -6 -15 0 -32 6 -39 14 -12 14 -15 14 -30 0 -9 -8 -33 -15 -53 -15 -53 0
-67 26 -67 127 0 76 2 83 20 83 18 0 20 -8 22 -97z m343 72 c14 -13 25 -33 25
-45 0 -18 -6 -20 -75 -20 l-75 0 0 -33 c0 -52 23 -75 78 -80 l47 -3 -50 -2
c-62 -2 -91 16 -104 64 -14 50 -4 90 31 119 39 33 90 33 123 0z m85 -74 c0
-70 4 -101 13 -105 6 -3 -1 -4 -18 -3 l-30 2 -3 103 c-3 97 -2 102 18 102 19
0 20 -6 20 -99z m81 72 c2 -16 3 -63 1 -105 -3 -59 -7 -78 -18 -78 -11 0 -14
21 -14 105 0 83 3 105 14 105 7 0 15 -12 17 -27z m89 13 c0 -23 -22 -31 -35
-13 -11 15 -13 15 -30 -1 -19 -17 -19 -17 -1 6 21 25 66 30 66 8z m164 -2 c12
-11 16 -36 16 -99 0 -71 3 -84 18 -88 11 -3 7 -5 -10 -6 -15 0 -30 4 -33 10
-4 6 -14 8 -24 4 -13 -5 -14 -4 -3 6 6 7 12 28 12 46 0 29 -3 33 -26 33 -37 0
-64 -18 -64 -43 0 -31 11 -44 40 -50 19 -3 16 -5 -11 -6 -42 -1 -61 16 -61 55
0 36 11 44 71 51 l52 6 -3 41 -3 41 -52 0 c-29 -1 -47 3 -40 7 22 14 105 9
121 -8z"/>
<path d="M820 610 c-25 -25 -28 -114 -4 -148 22 -32 78 -30 100 3 23 35 22
120 -1 145 -23 26 -70 25 -95 0z"/>
<path d="M1514 622 c-11 -7 -34 -45 -34 -56 0 -3 27 -6 59 -6 56 0 59 1 54 23
-3 12 -10 28 -16 35 -10 13 -46 16 -63 4z"/>
<path d="M2488 166 c-42 -11 -79 -24 -83 -27 -3 -4 2 -36 11 -73 l16 -66 104
0 c57 0 104 3 104 8 0 4 -10 46 -22 95 -16 63 -27 87 -38 86 -8 -1 -50 -11
-92 -23z"/>
<path d="M2078 56 c-42 -11 -77 -24 -77 -28 -1 -5 -1 -12 -1 -18 0 -6 42 -10
106 -10 96 0 105 2 100 18 -20 73 -12 70 -128 38z"/>
</g>
</svg>
